<svg xmlns="http://www.w3.org/2000/svg" viewBox="0 0 900 760"><rect width="900" height="760" fill="#75737d"/><ellipse cx="590" cy="340" rx="235" ry="300" fill="#d9a081"/><path d="M430 250c10-180 270-215 360-65 42 70 36 170 12 241-16-89-55-150-116-191-70-47-170-40-256 15Z" fill="#2d2327"/><path d="M530 335c35-28 79-30 114-3" fill="none" stroke="#3f2d2d" stroke-width="13" stroke-linecap="round"/><path d="M541 382c27 21 63 21 89-2" fill="none" stroke="#392829" stroke-width="8" stroke-linecap="round"/><path d="M704 337c32-19 66-15 90 10" fill="none" stroke="#3f2d2d" stroke-width="13" stroke-linecap="round"/><path d="M717 382c23 17 52 18 74 1" fill="none" stroke="#392829" stroke-width="8" stroke-linecap="round"/><path d="M674 410c-8 50-3 83 22 104" fill="none" stroke="#a96c56" stroke-width="8" stroke-linecap="round"/><path d="M610 559c58 45 130 41 177-7" fill="none" stroke="#8b4c4f" stroke-width="14" stroke-linecap="round"/><circle cx="550" cy="465" r="6" fill="#ac675c"/><circle cx="574" cy="486" r="5" fill="#ac675c"/><circle cx="528" cy="501" r="4" fill="#ac675c"/><circle cx="768" cy="457" r="5" fill="#ac675c"/><circle cx="789" cy="478" r="4" fill="#ac675c"/><path d="M60 650c135-218 330-238 465-72 74 91 180 113 315 92v90H60Z" fill="#e7b397"/><path d="M75 707c109-151 226-175 354-105" fill="none" stroke="#f6d5c2" stroke-width="72" stroke-linecap="round"/><path d="M780 625c-60-40-120-52-177-39" fill="none" stroke="#f6d5c2" stroke-width="58" stroke-linecap="round"/></svg>